<svg width="33.000000" height="33.000000" viewBox="0 0 33 33" fill="none" xmlns="http://www.w3.org/2000/svg" xmlns:xlink="http://www.w3.org/1999/xlink">
	<desc>
			Created with Pixso.
	</desc>
	<defs/>
	<path id="Vector" d="M29.81 32.48L19.31 21.96C18.37 22.71 17.29 23.31 16.07 23.75C14.85 24.19 13.56 24.4 12.18 24.4C8.78 24.4 5.89 23.22 3.54 20.86C1.17 18.5 0 15.61 0 12.2C0 8.79 1.17 5.9 3.54 3.54C5.89 1.18 8.78 0 12.18 0C15.59 0 18.47 1.18 20.83 3.54C23.19 5.9 24.37 8.79 24.37 12.2C24.37 13.58 24.15 14.88 23.71 16.1C23.28 17.32 22.68 18.4 21.93 19.34L32.48 29.9C32.82 30.24 33 30.66 33 31.16C33 31.66 32.81 32.1 32.43 32.48C32.09 32.82 31.65 33 31.12 33C30.59 33 30.15 32.82 29.81 32.48ZM12.18 20.65C14.53 20.65 16.52 19.83 18.16 18.19C19.8 16.54 20.62 14.55 20.62 12.2C20.62 9.85 19.8 7.86 18.16 6.21C16.52 4.57 14.53 3.75 12.18 3.75C9.84 3.75 7.85 4.57 6.2 6.21C4.57 7.86 3.75 9.85 3.75 12.2C3.75 14.55 4.57 16.54 6.2 18.19C7.85 19.83 9.84 20.65 12.18 20.65Z" fill="#B0CC0D" fill-opacity="1.000000" fill-rule="nonzero"/>
</svg>
