<svg width="34.443359" height="34.444458" viewBox="0 0 34.4434 34.4445" fill="none" xmlns="http://www.w3.org/2000/svg" xmlns:xlink="http://www.w3.org/1999/xlink">
	<desc>
			Created with Pixso.
	</desc>
	<defs/>
	<path id="Vector" d="M0 17.22C0 20.62 1 23.95 2.9 26.79C4.79 29.62 7.48 31.83 10.63 33.13C13.77 34.43 17.24 34.77 20.58 34.11C23.92 33.44 26.99 31.8 29.4 29.4C31.8 26.99 33.44 23.92 34.11 20.58C34.77 17.24 34.43 13.77 33.13 10.63C31.83 7.48 29.62 4.79 26.79 2.9C23.95 1.01 20.62 0 17.22 0C12.65 0 8.28 1.82 5.05 5.05C1.82 8.28 0 12.65 0 17.22ZM33.06 17.22C33.06 20.35 32.13 23.41 30.39 26.02C28.65 28.63 26.18 30.66 23.28 31.86C20.39 33.05 17.2 33.37 14.13 32.76C11.05 32.15 8.23 30.64 6.01 28.42C3.8 26.21 2.29 23.38 1.68 20.31C1.07 17.23 1.38 14.05 2.58 11.15C3.78 8.26 5.81 5.78 8.41 4.04C11.02 2.3 14.08 1.37 17.22 1.37C21.42 1.38 25.45 3.05 28.41 6.02C31.39 8.99 33.06 13.02 33.06 17.22ZM17.22 9.64C17.4 9.64 17.58 9.71 17.7 9.84C17.83 9.97 17.91 10.15 17.91 10.33L17.91 22.44L22.57 17.77C22.71 17.64 22.88 17.58 23.06 17.58C23.25 17.58 23.42 17.64 23.56 17.77C23.62 17.83 23.67 17.91 23.7 18C23.73 18.08 23.75 18.18 23.75 18.27C23.75 18.36 23.73 18.45 23.7 18.53C23.67 18.61 23.62 18.69 23.56 18.75L17.7 24.59C17.64 24.65 17.56 24.7 17.48 24.74C17.4 24.77 17.31 24.79 17.22 24.79C17.13 24.79 17.04 24.77 16.96 24.74C16.87 24.7 16.8 24.65 16.74 24.59L10.88 18.75C10.75 18.62 10.68 18.44 10.68 18.26C10.68 18.08 10.75 17.9 10.88 17.77C11.01 17.64 11.19 17.57 11.37 17.57C11.55 17.57 11.73 17.64 11.86 17.77L16.53 22.44L16.53 10.33C16.53 10.15 16.6 9.97 16.73 9.84C16.86 9.71 17.03 9.64 17.22 9.64Z" fill="#FFA800" fill-opacity="1.000000" fill-rule="nonzero"/>
</svg>
