<svg width="22.000000" height="22.000000" viewBox="0 0 22 22" fill="none" xmlns="http://www.w3.org/2000/svg" xmlns:xlink="http://www.w3.org/1999/xlink">
	<desc>
			Created with Pixso.
	</desc>
	<defs/>
	<path id="Vector" d="M21.41 16.87C21.32 16.78 21.22 16.69 21.1 16.62C20.96 16.52 20.75 16.56 20.66 16.71C20.56 16.86 20.6 17.06 20.75 17.16C21.12 17.4 21.35 17.83 21.35 18.27C21.35 18.63 21.21 18.97 20.96 19.22C20.69 19.49 20.33 19.63 19.95 19.61C19.86 19.61 19.77 19.64 19.7 19.7C19.64 19.77 19.61 19.86 19.61 19.95C19.63 20.32 19.49 20.69 19.22 20.96C18.69 21.48 17.85 21.48 17.33 20.96C17.08 20.71 16.94 20.37 16.94 20.01C16.94 19.65 17.08 19.32 17.33 19.07C17.51 18.89 17.78 18.69 17.53 18.44C17.53 18.44 16.25 17.16 16.25 17.16L17.16 16.25C17.16 16.25 18.44 17.53 18.44 17.53C18.58 17.66 18.82 17.65 18.93 17.49C18.97 17.43 19.02 17.38 19.07 17.33C19.22 17.18 19.4 17.06 19.61 17C19.78 16.95 19.87 16.76 19.82 16.59C19.76 16.42 19.58 16.33 19.41 16.38C19.13 16.47 18.87 16.63 18.65 16.83L17.51 15.69C17.51 15.69 17.21 14.94 17.16 14.58C17.06 13.82 17.05 13.06 17.05 12.29C17.06 11.73 17.07 11.16 17.01 10.6C16.73 7.74 15.29 5.24 14.12 3.64C13.04 2.16 11.68 0.86 11.66 0.84C10.8 -0.02 9.43 -0.23 7.79 0.24C6.22 0.69 4.57 1.72 3.15 3.14C1.72 4.57 0.69 6.22 0.24 7.79C-0.23 9.43 -0.02 10.8 0.83 11.66C0.86 11.68 2.15 13.04 3.64 14.12C4.95 15.08 6.38 15.88 7.92 16.41C8.37 16.57 8.83 16.7 9.29 16.8C10.04 16.97 10.8 17.05 11.57 17.06C12.57 17.06 13.58 17.02 14.58 17.16C14.93 17.21 15.66 17.5 15.67 17.51L16.83 18.65C16.48 19.02 16.29 19.5 16.29 20.01C16.29 20.54 16.5 21.04 16.87 21.41C17.25 21.79 17.75 22 18.27 22C18.8 22 19.3 21.79 19.68 21.41C19.99 21.1 20.19 20.68 20.25 20.24C20.68 20.19 21.1 19.99 21.41 19.68C21.79 19.3 22 18.8 22 18.27C22 17.75 21.79 17.25 21.41 16.87ZM0.86 7.97C1.28 6.5 2.25 4.95 3.6 3.6C4.95 2.26 6.5 1.28 7.97 0.86C8.48 0.71 8.96 0.64 9.39 0.64C10.15 0.64 10.77 0.86 11.2 1.29C11.88 1.97 12.03 3.12 11.63 4.52C11.21 5.99 10.24 7.54 8.89 8.89C7.54 10.24 5.99 11.21 4.52 11.63C3.12 12.03 1.97 11.88 1.29 11.2C0.61 10.52 0.46 9.37 0.86 7.97ZM14.67 16.52C14.46 16.49 14.25 16.47 14.03 16.45C13.43 16.4 12.83 16.39 12.21 16.4C10.99 16.42 9.89 16.33 8.72 15.99C6.99 15.49 5.48 14.66 4.03 13.61C3.48 13.21 3 12.82 2.61 12.47C2.76 12.49 2.93 12.5 3.1 12.5C3.59 12.5 4.13 12.42 4.7 12.25C6.27 11.8 7.92 10.77 9.35 9.35C10.77 7.92 11.8 6.27 12.25 4.7C12.47 3.94 12.54 3.23 12.47 2.61C12.82 3.01 13.21 3.48 13.61 4.03C14.72 5.56 16.11 7.95 16.37 10.66C16.5 11.99 16.33 13.34 16.52 14.67C16.58 15.05 16.7 15.38 16.82 15.68L15.68 16.82C15.38 16.7 15.05 16.58 14.67 16.52Z" fill="#000000" fill-opacity="1.000000" fill-rule="nonzero"/>
	<path id="Vector" d="M4.89 10.89C6.09 10.48 7.38 9.64 8.51 8.51C9.64 7.38 10.48 6.1 10.89 4.89C11.32 3.61 11.2 2.56 10.57 1.92C9.3 0.65 6.41 1.56 3.98 3.98C3.61 4.36 3.26 4.75 2.95 5.16C2.84 5.3 2.87 5.5 3.01 5.61C3.16 5.72 3.36 5.69 3.47 5.55C3.76 5.16 4.08 4.79 4.44 4.44C6.53 2.34 9.13 1.4 10.11 2.38C10.56 2.82 10.62 3.67 10.27 4.69C9.9 5.8 9.11 6.99 8.05 8.05C6.99 9.11 5.8 9.9 4.68 10.27C3.66 10.62 2.82 10.56 2.38 10.11C1.77 9.51 1.89 8.22 2.68 6.76C2.76 6.6 2.71 6.4 2.55 6.32C2.39 6.23 2.2 6.29 2.11 6.45C1.16 8.2 1.09 9.74 1.92 10.57C2.3 10.95 2.83 11.14 3.48 11.14C3.91 11.14 4.38 11.06 4.89 10.89Z" fill="#000000" fill-opacity="1.000000" fill-rule="nonzero"/>
	<path id="Vector" d="M7.16 6.29C7.65 6.29 8.25 5.98 8.77 5.42C9.53 4.58 9.73 3.61 9.24 3.16C8.97 2.91 8.58 2.87 8.13 3.04C7.75 3.17 7.36 3.45 7.02 3.81C6.26 4.65 6.06 5.62 6.56 6.08C6.72 6.22 6.92 6.29 7.16 6.29ZM7.5 4.25C7.76 3.97 8.07 3.74 8.35 3.64C8.63 3.54 8.9 3.56 8.86 3.92C8.82 4.32 8.56 4.69 8.29 4.98C7.75 5.57 7.15 5.74 6.99 5.6C6.83 5.45 6.96 4.84 7.5 4.25Z" fill="#000000" fill-opacity="1.000000" fill-rule="nonzero"/>
</svg>
