<svg width="20.000000" height="22.915527" viewBox="0 0 20 22.9155" fill="none" xmlns="http://www.w3.org/2000/svg" xmlns:xlink="http://www.w3.org/1999/xlink">
	<desc>
			Created with Pixso.
	</desc>
	<defs/>
	<path id="Vector" d="M18.84 9.09C18.21 7.97 17.33 6.96 16.27 6.16C17.16 5.32 17.49 4.32 17.51 4.28C17.58 4.06 17.48 3.82 17.28 3.73C17.08 3.63 16.84 3.71 16.72 3.9C16.68 3.98 16.38 4.45 15.7 4.45C15.47 4.45 15.19 4.39 14.86 4.24C13.19 3.47 11.43 3.77 11.11 3.83L10.86 3.83C10.48 2.9 9.31 0.27 7.99 0.02C7.51 -0.07 7.11 0.09 6.87 0.45C6.59 0.9 6.56 1.76 7.07 2.53C7.25 2.82 7.49 3.23 7.75 3.73C7.01 3.69 5.9 3.75 4.84 4.24C3.57 4.83 3.04 4 2.98 3.9C2.87 3.71 2.63 3.63 2.43 3.72C2.23 3.81 2.13 4.05 2.19 4.26C2.2 4.32 2.54 5.43 3.43 6.39C2.45 7.19 1.63 8.19 1.05 9.28C0.35 10.6 0 12.01 0 13.49C0 16.02 1.04 18.39 2.94 20.17C4.83 21.94 7.33 22.91 10 22.91C12.66 22.91 15.16 21.94 17.05 20.17C18.95 18.39 20 16.02 20 13.49C20 11.96 19.59 10.44 18.84 9.09ZM5.2 5.06C6.39 4.51 7.69 4.6 8.22 4.68L8.26 4.79L8.26 4.79L8.75 5.92C8.84 6.15 9.09 6.25 9.31 6.16C9.53 6.06 9.64 5.8 9.54 5.57C9.42 5.28 9.22 4.79 9.06 4.43C9 4.29 8.96 4.19 8.93 4.13C8.93 4.13 8.93 4.12 8.92 4.11C8.92 4.1 8.91 4.08 8.91 4.07C8.46 3.17 8.08 2.49 7.79 2.04C7.51 1.61 7.49 1.11 7.6 0.95C7.61 0.92 7.65 0.87 7.83 0.9C8.42 1.01 9.47 2.6 10.16 4.44C10.22 4.61 10.38 4.73 10.56 4.73L11.15 4.73C11.18 4.73 11.21 4.72 11.24 4.72C11.25 4.71 11.69 4.62 12.33 4.62C12.95 4.62 13.75 4.71 14.51 5.06C15.02 5.3 15.47 5.36 15.84 5.34C15.68 5.51 15.5 5.67 15.3 5.81C14.4 6.45 13.26 6.57 11.94 6.19C11.78 6.14 11.6 6.19 11.49 6.32C11.38 6.46 11.35 6.64 11.42 6.8C11.49 6.95 11.61 7.07 11.79 7.26C12.12 7.6 12.67 8.16 12.96 9.09C12.52 8.9 12.1 8.87 11.81 8.85C11.66 8.84 11.52 8.83 11.46 8.81L11.41 8.79C10.43 8.44 10.29 8.11 10.29 7.95C10.29 7.71 10.09 7.51 9.85 7.51C9.61 7.51 9.41 7.71 9.41 7.95C9.41 8.34 8.31 9.04 7.86 9.2C7.81 9.22 7.76 9.24 7.7 9.26C7.45 9.34 7.15 9.44 6.79 9.68C7.1 8.74 7.63 8.1 7.96 7.7C8.12 7.51 8.22 7.38 8.28 7.25C8.35 7.09 8.32 6.91 8.21 6.77C8.13 6.67 8.01 6.62 7.88 6.62C7.84 6.62 7.8 6.63 7.76 6.64C6.43 7.03 5.29 6.84 4.38 6.08L4.38 6.08C4.11 5.84 3.89 5.59 3.7 5.33C4.11 5.39 4.61 5.33 5.2 5.06ZM10 22.02C4.96 22.02 0.86 18.19 0.86 13.49C0.86 10.96 2.04 8.61 4.11 6.98C4.72 7.41 5.43 7.66 6.17 7.72C6.39 7.73 6.61 7.73 6.83 7.71C6.34 8.4 5.77 9.44 5.7 10.86C5.69 11.06 5.8 11.23 5.98 11.3C6.03 11.32 6.08 11.33 6.14 11.33C6.21 11.33 6.28 11.32 6.34 11.28C6.35 11.27 6.36 11.27 6.38 11.26C6.41 11.23 6.44 11.21 6.47 11.18C7.11 10.4 7.57 10.24 7.97 10.11C8.03 10.09 8.09 10.07 8.16 10.04C8.17 10.04 9.23 9.6 9.85 8.92C10.26 9.32 10.86 9.54 11.12 9.64L11.16 9.65C11.34 9.72 11.54 9.73 11.75 9.74C12.22 9.77 12.75 9.81 13.24 10.39C13.35 10.54 13.55 10.59 13.73 10.52C13.9 10.45 14.01 10.27 14 10.08C13.94 8.78 13.45 7.89 13 7.29C13.68 7.34 14.38 7.25 15.02 6.98C15.2 6.9 15.37 6.82 15.54 6.72C16.59 7.47 17.47 8.44 18.09 9.54C18.77 10.75 19.13 12.12 19.13 13.49C19.13 18.19 15.03 22.02 10 22.02Z" fill="#000000" fill-opacity="1.000000" fill-rule="nonzero"/>
	<path id="Vector" d="M10 21.12C5.53 21.12 1.91 17.7 1.91 13.49C1.91 13.25 2.1 13.05 2.34 13.05C2.58 13.05 2.78 13.25 2.78 13.49C2.78 17.2 6.01 20.22 10 20.22C10.23 20.22 10.43 20.42 10.43 20.67C10.43 20.92 10.23 21.12 10 21.12Z" fill="#000000" fill-opacity="1.000000" fill-rule="nonzero"/>
	<path id="Vector" d="M11.79 20.92C11.55 20.92 11.36 20.72 11.36 20.47C11.36 20.23 11.55 20.02 11.79 20.02L11.79 20.02C12.03 20.02 12.23 20.23 12.23 20.47C12.23 20.72 12.03 20.92 11.79 20.92Z" fill="#000000" fill-opacity="1.000000" fill-rule="nonzero"/>
</svg>
