<svg width="22.000000" height="22.119873" viewBox="0 0 22 22.1199" fill="none" xmlns="http://www.w3.org/2000/svg" xmlns:xlink="http://www.w3.org/1999/xlink">
	<desc>
			Created with Pixso.
	</desc>
	<defs/>
	<path id="Vector" d="M20.59 12.72C20.41 12.49 20.22 12.29 20.01 12.09C20.35 11.57 20.55 10.95 20.55 10.27C20.55 9.74 20.42 9.22 20.19 8.75C20.11 8.59 19.91 8.53 19.75 8.61C19.59 8.7 19.53 8.9 19.62 9.06C19.81 9.44 19.91 9.84 19.91 10.27C19.91 10.79 19.76 11.27 19.51 11.68C19.35 11.56 19.19 11.45 19.02 11.35C19.21 11.04 19.33 10.67 19.33 10.27C19.33 9.16 18.45 8.25 17.36 8.25C17.05 8.25 16.75 8.33 16.48 8.47L16.48 7.82C16.75 7.71 17.05 7.66 17.36 7.66C17.84 7.66 18.31 7.79 18.71 8.05C18.86 8.15 19.06 8.1 19.15 7.95C19.25 7.79 19.2 7.59 19.05 7.49C18.55 7.16 17.96 6.99 17.36 6.99C17.06 6.99 16.76 7.04 16.48 7.12L16.48 4.55C17.06 4.55 17.53 4.06 17.53 3.47C17.53 2.87 17.05 2.38 16.47 2.38L16.94 0.73C16.99 0.55 16.95 0.37 16.85 0.22C16.74 0.08 16.58 0 16.4 0L12.44 0C12.26 0 12.1 0.08 11.99 0.23C11.89 0.37 11.86 0.56 11.91 0.73L12.39 2.38L11.12 2.38C10.92 2.38 10.73 2.49 10.64 2.68C10.55 2.86 10.56 3.09 10.67 3.26L11.12 3.92C11.39 4.32 11.83 4.55 12.3 4.55L12.44 4.55L12.44 9.8C12.44 10.2 12.17 10.53 11.8 10.6C10.76 10.79 9.8 11.26 9 11.95C8.8 10.53 8.38 9.27 7.78 8.35C7.7 8.22 7.56 8.14 7.41 8.14C7.25 8.14 7.11 8.22 7.03 8.35C6.18 9.65 5.69 11.64 5.69 13.8C5.69 14.12 5.7 14.45 5.72 14.76C5.56 14.58 5.4 14.4 5.23 14.22C5.11 14.11 5 13.99 4.88 13.88C4.75 13.75 4.54 13.76 4.42 13.89C4.3 14.03 4.31 14.24 4.44 14.36C4.56 14.48 4.66 14.58 4.77 14.69C5.36 15.29 5.87 15.94 6.28 16.59C6.22 16.63 6.16 16.68 6.09 16.74C5.89 16.63 5.67 16.54 5.45 16.48L3.14 14.11C3.02 13.98 2.81 13.98 2.69 14.11C2.56 14.24 2.56 14.45 2.69 14.58L4.43 16.37C4.12 16.38 3.82 16.44 3.54 16.54C3.44 16.44 3.35 16.35 3.25 16.25C1.98 14.94 1.04 13.4 0.7 12.07C1.51 12.28 2.42 12.75 3.3 13.4C3.44 13.51 3.65 13.47 3.75 13.33C3.85 13.18 3.82 12.97 3.68 12.86C2.6 12.07 1.52 11.54 0.54 11.35C0.39 11.32 0.24 11.36 0.13 11.47C0.02 11.59 -0.03 11.74 0 11.9C0.15 12.64 0.47 13.46 0.94 14.29C1.43 15.14 2.06 15.96 2.8 16.72C2.83 16.76 2.87 16.8 2.91 16.83C2.08 17.35 1.52 18.23 1.52 19.24C1.52 20.82 2.9 22.11 4.58 22.11C5.32 22.11 6 21.87 6.52 21.46C7.09 21.89 7.75 22.11 8.39 22.11C8.95 22.11 9.49 21.95 9.94 21.62C10.61 21.94 11.36 22.11 12.14 22.11L16.7 22.11C19.62 22.11 22 19.67 22 16.67C22 15.23 21.5 13.82 20.59 12.72ZM17.36 8.92C18.09 8.92 18.68 9.52 18.68 10.27C18.68 10.56 18.59 10.82 18.45 11.04C18.02 10.85 17.58 10.7 17.12 10.61C16.75 10.54 16.48 10.21 16.48 9.82L16.48 9.27C16.71 9.05 17.02 8.92 17.36 8.92ZM12.56 0.66L16.29 0.66L15.8 2.38L13.06 2.38L12.56 0.66ZM11.65 3.54L11.31 3.04L16.47 3.04C16.7 3.04 16.88 3.23 16.88 3.47C16.88 3.7 16.7 3.89 16.47 3.89L12.3 3.89C12.04 3.89 11.8 3.76 11.65 3.54ZM7.41 8.98C8.08 10.16 8.48 11.94 8.48 13.8C8.48 14.6 8.41 15.39 8.27 16.11C8.09 16.09 7.91 16.08 7.73 16.08L7.73 12.2C7.73 12.02 7.58 11.87 7.41 11.87C7.23 11.87 7.08 12.02 7.08 12.2L7.08 16.19C7 16.21 6.92 16.24 6.85 16.27C6.73 16.09 6.61 15.9 6.48 15.72C6.38 15.11 6.33 14.46 6.33 13.8C6.33 11.94 6.73 10.16 7.41 8.98ZM2.17 19.24C2.17 18.02 3.25 17.03 4.58 17.03C4.97 17.03 5.33 17.11 5.65 17.25C4.93 18.35 5.07 19.91 6.04 21.01C5.63 21.29 5.13 21.45 4.58 21.45C3.25 21.45 2.17 20.46 2.17 19.24ZM6.6 20.66C5.66 19.69 5.58 18.2 6.41 17.34C6.79 16.95 7.3 16.74 7.85 16.74C7.89 16.74 7.93 16.74 7.97 16.75C8.59 16.78 9.18 17.06 9.64 17.53C10.58 18.5 10.67 20 9.83 20.86C9 21.72 7.55 21.63 6.6 20.66ZM16.7 21.45L12.14 21.45C11.55 21.45 10.98 21.34 10.46 21.13C10.56 21.01 10.64 20.88 10.71 20.75C11.16 20.92 11.64 21.01 12.14 21.01L16.7 21.01C18.83 21.01 20.63 19.37 20.89 17.2C20.91 17.02 20.79 16.85 20.61 16.83C20.43 16.81 20.27 16.94 20.25 17.12C20.03 18.96 18.5 20.35 16.7 20.35L12.14 20.35C11.73 20.35 11.33 20.27 10.95 20.14C11.23 19.11 10.93 17.92 10.1 17.06C9.74 16.7 9.33 16.43 8.89 16.27C9 15.72 9.07 15.15 9.1 14.55C9.24 14.3 9.4 14.06 9.58 13.83C10.22 13.06 11.1 12.53 12.07 12.35L16.83 12.36C17.78 12.55 18.65 13.08 19.28 13.85C19.71 14.38 20.01 15.01 20.17 15.69C20.21 15.86 20.38 15.98 20.55 15.93C20.73 15.89 20.83 15.71 20.79 15.54C20.62 14.76 20.27 14.03 19.77 13.43C19.04 12.53 18.02 11.91 16.92 11.7C16.9 11.7 16.88 11.69 16.86 11.69L12.04 11.68C12.02 11.69 12 11.69 11.98 11.69C10.87 11.89 9.86 12.49 9.12 13.38C9.11 13.17 9.1 12.97 9.08 12.76C9.86 11.98 10.84 11.45 11.91 11.25C12.59 11.13 13.09 10.52 13.09 9.8L13.09 4.55L15.83 4.55L15.83 9.82C15.83 10.52 16.32 11.13 17 11.27C18.2 11.5 19.3 12.17 20.1 13.14C20.91 14.13 21.35 15.38 21.35 16.67C21.35 19.3 19.26 21.45 16.7 21.45Z" fill="#000000" fill-opacity="1.000000" fill-rule="nonzero"/>
	<path id="Vector" d="M2.97 18.61C2.79 18.61 2.65 18.75 2.65 18.94L2.65 19.54C2.65 19.72 2.79 19.87 2.97 19.87C3.15 19.87 3.29 19.72 3.29 19.54L3.29 18.94C3.29 18.75 3.15 18.61 2.97 18.61Z" fill="#000000" fill-opacity="1.000000" fill-rule="nonzero"/>
	<path id="Vector" d="M6.96 17.47L6.55 17.9C6.42 18.03 6.42 18.24 6.55 18.37C6.61 18.43 6.69 18.47 6.77 18.47C6.86 18.47 6.94 18.43 7 18.37L7.42 17.94C7.54 17.81 7.54 17.6 7.42 17.47C7.29 17.34 7.09 17.34 6.96 17.47Z" fill="#000000" fill-opacity="1.000000" fill-rule="nonzero"/>
</svg>
