<svg width="16.000000" height="9.000000" viewBox="0 0 16 9" fill="none" xmlns="http://www.w3.org/2000/svg" xmlns:xlink="http://www.w3.org/1999/xlink">
	<desc>
			Created with Pixso.
	</desc>
	<defs/>
	<path id="Vector" d="M8 7.46L14.97 0.18C15.03 0.12 15.09 0.07 15.17 0.04C15.24 0.01 15.32 -0.01 15.4 0C15.48 0 15.56 0.01 15.63 0.05C15.7 0.08 15.77 0.13 15.83 0.19C15.88 0.25 15.92 0.32 15.95 0.4C15.98 0.48 16 0.56 16 0.65C15.99 0.73 15.98 0.82 15.94 0.9C15.91 0.97 15.87 1.04 15.81 1.1L8.41 8.81C8.3 8.93 8.15 9 8 9C7.84 9 7.69 8.93 7.58 8.81L0.18 1.1C0.12 1.04 0.08 0.97 0.05 0.9C0.01 0.82 0 0.73 0 0.65C-0.01 0.56 0.01 0.48 0.04 0.4C0.07 0.32 0.11 0.25 0.16 0.19C0.22 0.13 0.29 0.08 0.36 0.05C0.43 0.01 0.51 0 0.59 0C0.67 -0.01 0.75 0.01 0.82 0.04C0.9 0.07 0.96 0.12 1.02 0.18L8 7.46Z" fill="#CECECE" fill-opacity="1.000000" fill-rule="nonzero"/>
</svg>
