<svg width="26.000000" height="26.000000" viewBox="0 0 26 26" fill="none" xmlns="http://www.w3.org/2000/svg" xmlns:xlink="http://www.w3.org/1999/xlink">
	<desc>
			Created with Pixso.
	</desc>
	<defs>
		<clipPath id="clip679_1247">
			<rect id="iconamoon:delivery-free-thin" width="26.000000" height="26.000000" fill="white" fill-opacity="0"/>
		</clipPath>
	</defs>
	<rect id="iconamoon:delivery-free-thin" width="26.000000" height="26.000000" fill="#FFFFFF" fill-opacity="0"/>
	<g clip-path="url(#clip679_1247)">
		<path id="Vector" d="M2.16 7.58L2.16 7.04C2.02 7.04 1.88 7.09 1.78 7.2C1.68 7.3 1.62 7.43 1.62 7.58L2.16 7.58ZM14.08 7.58L14.62 7.58C14.62 7.43 14.56 7.3 14.46 7.2C14.36 7.09 14.22 7.04 14.08 7.04L14.08 7.58ZM14.08 9.75L14.08 9.2C13.93 9.2 13.8 9.26 13.7 9.36C13.59 9.46 13.54 9.6 13.54 9.75L14.08 9.75ZM2.16 8.12L14.08 8.12L14.08 7.04L2.16 7.04L2.16 8.12ZM13.54 7.58L13.54 20.58L14.62 20.58L14.62 7.58L13.54 7.58ZM2.7 18.41L2.7 7.58L1.62 7.58L1.62 18.41L2.7 18.41ZM14.08 10.29L19.5 10.29L19.5 9.2L14.08 9.2L14.08 10.29ZM23.29 14.08L23.29 18.41L24.37 18.41L24.37 14.08L23.29 14.08ZM14.62 20.58L14.62 9.75L13.54 9.75L13.54 20.58L14.62 20.58ZM20.64 21.73C20.34 22.03 19.92 22.2 19.5 22.2C19.07 22.2 18.65 22.03 18.35 21.73L17.58 22.49C17.83 22.75 18.13 22.94 18.46 23.08C18.79 23.22 19.14 23.29 19.5 23.29C19.85 23.29 20.2 23.22 20.53 23.08C20.86 22.94 21.16 22.75 21.41 22.49L20.65 21.73L20.64 21.73ZM18.35 19.43C18.65 19.13 19.07 18.95 19.5 18.95C19.92 18.95 20.34 19.13 20.64 19.43L21.41 18.66C21.16 18.41 20.86 18.21 20.53 18.08C20.2 17.94 19.85 17.87 19.5 17.87C19.14 17.87 18.79 17.94 18.46 18.08C18.13 18.21 17.83 18.41 17.58 18.66L18.34 19.43L18.35 19.43ZM7.64 21.73C7.34 22.03 6.92 22.2 6.5 22.2C6.07 22.2 5.65 22.03 5.35 21.73L4.58 22.49C4.83 22.75 5.13 22.94 5.46 23.08C5.79 23.22 6.14 23.29 6.5 23.29C6.85 23.29 7.2 23.22 7.53 23.08C7.86 22.94 8.16 22.75 8.41 22.49L7.65 21.73L7.64 21.73ZM5.35 19.43C5.65 19.13 6.07 18.95 6.5 18.95C6.92 18.95 7.34 19.13 7.64 19.43L8.41 18.66C8.16 18.41 7.86 18.21 7.53 18.08C7.2 17.94 6.85 17.87 6.5 17.87C6.14 17.87 5.79 17.94 5.46 18.08C5.13 18.21 4.83 18.41 4.58 18.66L5.34 19.43L5.35 19.43ZM20.64 19.43C20.96 19.75 21.12 20.16 21.12 20.58L22.2 20.58C22.2 19.89 21.94 19.19 21.41 18.66L20.65 19.43L20.64 19.43ZM21.12 20.58C21.12 21 20.96 21.41 20.64 21.73L21.41 22.49C21.66 22.24 21.86 21.94 22 21.62C22.13 21.29 22.2 20.93 22.2 20.58L21.12 20.58ZM17.33 20.04L14.08 20.04L14.08 21.12L17.33 21.12L17.33 20.04ZM18.35 21.73C18.2 21.58 18.08 21.4 17.99 21.2C17.91 21 17.87 20.79 17.87 20.58L16.79 20.58C16.79 21.27 17.05 21.97 17.58 22.49L18.34 21.73L18.35 21.73ZM17.87 20.58C17.87 20.16 18.03 19.75 18.35 19.43L17.58 18.66C17.33 18.91 17.13 19.21 16.99 19.54C16.86 19.87 16.79 20.22 16.79 20.58L17.87 20.58ZM5.35 21.73C5.2 21.58 5.08 21.4 4.99 21.2C4.91 21 4.87 20.79 4.87 20.58L3.79 20.58C3.79 21.27 4.05 21.97 4.58 22.49L5.34 21.73L5.35 21.73ZM4.87 20.58C4.87 20.16 5.03 19.75 5.35 19.43L4.58 18.66C4.33 18.91 4.13 19.21 3.99 19.54C3.86 19.87 3.79 20.22 3.79 20.58L4.87 20.58ZM14.08 20.04L8.66 20.04L8.66 21.12L14.08 21.12L14.08 20.04ZM7.64 19.43C7.96 19.75 8.12 20.16 8.12 20.58L9.2 20.58C9.2 19.89 8.94 19.19 8.41 18.66L7.65 19.43L7.64 19.43ZM8.12 20.58C8.12 21 7.96 21.41 7.64 21.73L8.41 22.49C8.66 22.24 8.86 21.94 9 21.62C9.13 21.29 9.2 20.93 9.2 20.58L8.12 20.58ZM23.29 18.41C23.29 18.84 23.12 19.26 22.81 19.56C22.51 19.87 22.09 20.04 21.66 20.04L21.66 21.12C22.38 21.12 23.07 20.83 23.58 20.33C24.08 19.82 24.37 19.13 24.37 18.41L23.29 18.41ZM19.5 10.29C20.5 10.29 21.47 10.69 22.18 11.4C22.89 12.11 23.29 13.07 23.29 14.08L24.37 14.08C24.37 12.79 23.86 11.55 22.94 10.63C22.03 9.72 20.79 9.2 19.5 9.2L19.5 10.29ZM1.62 18.41C1.62 19.13 1.91 19.82 2.41 20.33C2.92 20.83 3.61 21.12 4.33 21.12L4.33 20.04C3.9 20.04 3.48 19.87 3.18 19.56C2.87 19.26 2.7 18.84 2.7 18.41L1.62 18.41Z" fill="#FFFFFF" fill-opacity="1.000000" fill-rule="nonzero"/>
		<path id="Vector" d="M8.12 6.5C8.12 5.63 8.46 4.81 9.07 4.2C9.68 3.59 10.51 3.25 11.37 3.25C11.66 3.25 11.93 3.36 12.14 3.56C12.34 3.77 12.45 4.04 12.45 4.33C12.45 5.19 12.11 6.02 11.5 6.63C10.89 7.24 10.07 7.58 9.2 7.58L8.12 7.58L7.04 7.58C6.17 7.58 5.35 7.24 4.74 6.63C4.13 6.02 3.79 5.19 3.79 4.33C3.79 4.04 3.9 3.77 4.1 3.56C4.31 3.36 4.58 3.25 4.87 3.25C5.73 3.25 6.56 3.59 7.17 4.2C7.78 4.81 8.12 5.63 8.12 6.5L8.12 7.58" stroke="#FFFFFF" stroke-opacity="1.000000" stroke-width="1.000000" stroke-linejoin="round"/>
	</g>
</svg>
