<svg width="10.000000" height="15.812012" viewBox="0 0 10 15.812" fill="none" xmlns="http://www.w3.org/2000/svg" xmlns:xlink="http://www.w3.org/1999/xlink">
	<desc>
			Created with Pixso.
	</desc>
	<defs/>
	<path id="Combined Shape" d="M5 0C7.76172 0 10 2.20459 10 4.92432Q10 5.85938 9.40918 7.18115L9.27832 7.46338C9.11816 7.79834 8.93066 8.15039 8.7168 8.52002L8.52637 8.84131C8.49414 8.89551 8.46094 8.94971 8.42676 9.00488L8.21777 9.33887C8.18164 9.39502 8.14453 9.45215 8.10742 9.50928L7.87891 9.85596L7.63672 10.2114C7.59473 10.2715 7.55273 10.3315 7.50977 10.3921L7.24805 10.7607C7.20312 10.8228 7.1582 10.8853 7.1123 10.9478L6.83105 11.3291L6.53613 11.7188C6.48633 11.7842 6.43555 11.8506 6.38379 11.917L6.06934 12.3193C5.96289 12.4551 5.85352 12.5918 5.74219 12.7305C5.69922 12.7842 5.65039 12.833 5.59668 12.876C5.20703 13.189 4.64648 13.146 4.30957 12.7896L4.25781 12.7305L4.09277 12.5239L3.77148 12.1172C3.66699 11.9829 3.56445 11.8501 3.46387 11.7188L3.16895 11.3291L2.8877 10.9478C2.8418 10.8853 2.79688 10.8228 2.75195 10.7607L2.49023 10.3921C2.44727 10.3315 2.40527 10.2715 2.36328 10.2114L2.12109 9.85596L1.89258 9.50928Q1.83691 9.42334 1.78223 9.33887L1.57324 9.00488C1.53906 8.94971 1.50586 8.89551 1.47363 8.84131L1.2832 8.52002Q0.962891 7.96533 0.72168 7.46338L0.59082 7.18115Q0 5.85938 0 4.92432C0 2.20459 2.23828 0 5 0ZM0.713867 4.92432C0.713867 2.60205 2.62988 0.714355 5 0.714355C7.36914 0.714355 9.28516 2.60205 9.28516 4.92432C9.28516 5.63867 8.95898 6.60156 8.30273 7.79932L8.13867 8.09131C8.08203 8.19043 8.02344 8.29053 7.96289 8.39258L7.77344 8.70215L7.57227 9.021L7.35742 9.34863C7.32031 9.4043 7.2832 9.45996 7.24512 9.51611L7.01172 9.85693L6.76562 10.2065C6.72363 10.2651 6.68164 10.3247 6.6377 10.3843L6.37305 10.7471L6.09473 11.1182L5.80469 11.498L5.50098 11.8862L5.18555 12.2832C5.1748 12.2964 5.16211 12.3086 5.14844 12.3198C5.0459 12.4019 4.89648 12.3857 4.81445 12.2832L4.64941 12.0776L4.34082 11.6855C4.29004 11.6211 4.24023 11.5566 4.19043 11.4927L3.90039 11.1133L3.62305 10.7422Q3.55469 10.6509 3.48828 10.5601L3.23047 10.2021L2.98438 9.85303Q2.9248 9.7666 2.86621 9.68164L2.63965 9.34521L2.4248 9.01807C2.32129 8.85645 2.22266 8.69824 2.12793 8.54346L1.94531 8.23828C1.91602 8.18799 1.88672 8.13818 1.8584 8.08887L1.69531 7.79688L1.54395 7.51416C0.990234 6.44775 0.713867 5.58057 0.713867 4.92432ZM5.00098 3.18164C6.00488 3.18164 6.81934 3.99561 6.81934 4.99951C6.81934 6.00391 6.00488 6.81787 5.00098 6.81787C3.99707 6.81787 3.18262 6.00391 3.18262 4.99951C3.18262 3.99561 3.99707 3.18164 5.00098 3.18164ZM5.00098 3.896C4.39062 3.896 3.89648 4.39014 3.89648 5C3.89648 5.60938 4.39062 6.104 5.00098 6.104C5.61035 6.104 6.10449 5.60938 6.10449 5C6.10449 4.39014 5.61035 3.896 5.00098 3.896ZM5.11328 14.4473C5.96875 14.4473 6.7627 14.209 7.27637 13.7998C7.64355 13.5068 7.85645 13.1348 7.85645 12.7266C7.85645 12.5293 7.69629 12.3696 7.49902 12.3696C7.31836 12.3696 7.16895 12.5039 7.14551 12.6782L7.14258 12.7266C7.14258 12.896 7.04004 13.0742 6.83105 13.2412C6.4541 13.542 5.81641 13.7334 5.11328 13.7334C4.41699 13.7334 3.78418 13.5454 3.40527 13.249C3.21289 13.0991 3.1084 12.939 3.08789 12.7847L3.08398 12.7266C3.08398 12.5293 2.92383 12.3696 2.72656 12.3696C2.5293 12.3696 2.36914 12.5293 2.36914 12.7266C2.36914 13.1406 2.58887 13.5171 2.96484 13.8115C3.47949 14.2139 4.2666 14.4473 5.11328 14.4473ZM8.74805 14.79C7.89648 15.4326 6.55957 15.812 5.11328 15.812C3.68262 15.812 2.35742 15.4399 1.50391 14.8086C0.898438 14.3604 0.551758 13.7964 0.551758 13.1821C0.551758 12.9849 0.711914 12.8247 0.90918 12.8247C1.10645 12.8247 1.2666 12.9849 1.2666 13.1821C1.2666 13.5444 1.49121 13.9102 1.92871 14.2344C2.64941 14.7671 3.82617 15.0977 5.11328 15.0977C6.41406 15.0977 7.60059 14.7607 8.31836 14.2197C8.74316 13.8989 8.96094 13.5391 8.96094 13.1821C8.96094 12.9849 9.12109 12.8247 9.31836 12.8247C9.51562 12.8247 9.6748 12.9849 9.6748 13.1821C9.6748 13.7876 9.33887 14.3447 8.74805 14.79Z" clip-rule="evenodd" fill="#FFFFFF" fill-opacity="1.000000" fill-rule="evenodd"/>
</svg>
