<svg width="15.000000" height="15.000000" viewBox="0 0 15 15" fill="none" xmlns="http://www.w3.org/2000/svg" xmlns:xlink="http://www.w3.org/1999/xlink">
	<desc>
			Created with Pixso.
	</desc>
	<defs>
		<clipPath id="clip116_366">
			<rect id="mdi-light:email" width="15.000000" height="15.000000" fill="white" fill-opacity="0"/>
		</clipPath>
	</defs>
	<rect id="mdi-light:email" width="15.000000" height="15.000000" fill="#FFFFFF" fill-opacity="0"/>
	<g clip-path="url(#clip116_366)">
		<path id="Vector" d="M3.12 3.12L11.25 3.12C11.74 3.12 12.22 3.32 12.57 3.67C12.92 4.02 13.12 4.5 13.12 5L13.12 10.62C13.12 11.12 12.92 11.59 12.57 11.95C12.22 12.3 11.74 12.5 11.25 12.5L3.12 12.5C2.62 12.5 2.15 12.3 1.79 11.95C1.44 11.59 1.25 11.12 1.25 10.62L1.25 5C1.25 4.5 1.44 4.02 1.79 3.67C2.15 3.32 2.62 3.12 3.12 3.12ZM3.12 3.75C2.81 3.75 2.53 3.85 2.32 4.04L7.18 7.18L12.04 4.04C11.83 3.85 11.56 3.75 11.25 3.75L3.12 3.75ZM7.18 7.94L1.95 4.54C1.9 4.68 1.87 4.84 1.87 5L1.87 10.62C1.87 10.95 2 11.27 2.24 11.5C2.47 11.74 2.79 11.87 3.12 11.87L11.25 11.87C11.58 11.87 11.89 11.74 12.13 11.5C12.36 11.27 12.5 10.95 12.5 10.62L12.5 5C12.5 4.84 12.46 4.68 12.41 4.54L7.18 7.94Z" fill="#FFFFFF" fill-opacity="1.000000" fill-rule="nonzero"/>
	</g>
</svg>
