<svg width="25.000000" height="25.000000" viewBox="0 0 25 25" fill="none" xmlns="http://www.w3.org/2000/svg" xmlns:xlink="http://www.w3.org/1999/xlink">
	<desc>
			Created with Pixso.
	</desc>
	<defs>
		<clipPath id="clip606_975">
			<rect id="free-icon-food-package-4682243" width="25.000000" height="25.000000" fill="white" fill-opacity="0"/>
		</clipPath>
	</defs>
	<rect id="free-icon-food-package-4682243" width="25.000000" height="25.000000" fill="#FFFFFF" fill-opacity="0"/>
	<g clip-path="url(#clip606_975)">
		<path id="Vector" d="M17.95 20.61C17.95 20.61 17.95 20.61 17.95 20.6L17.32 18.07C17.31 18.02 17.29 17.97 17.27 17.92C17.68 17.81 18 17.49 18.1 17.08L18.73 14.54C18.73 14.54 18.73 14.54 18.73 14.54C18.74 14.48 18.74 14.42 18.73 14.36C18.73 14.36 18.73 14.36 18.73 14.35L18.1 11.82C17.97 11.3 17.5 10.93 16.96 10.93L3.34 10.93C2.8 10.93 2.33 11.3 2.2 11.82L1.57 14.35L1.57 14.36C1.57 14.42 1.57 14.48 1.57 14.54L1.57 14.54L2.2 17.08C2.22 17.13 2.23 17.18 2.25 17.23C1.84 17.34 1.52 17.66 1.42 18.07L0.79 20.6L0.79 20.61C0.79 20.67 0.79 20.73 0.79 20.79L0.79 20.79L1.42 23.33C1.55 23.85 2.02 24.21 2.56 24.21L16.18 24.21C16.72 24.21 17.19 23.85 17.32 23.33L17.95 20.79C17.95 20.79 17.95 20.79 17.95 20.79C17.95 20.73 17.95 20.67 17.95 20.61L17.95 20.61ZM13.19 20.31L12.63 18.07C12.62 18.03 12.61 18 12.59 17.96L16.18 17.96C16.36 17.96 16.52 18.09 16.56 18.26L17.07 20.31L13.19 20.31ZM2.96 16.89L2.45 14.84L13.17 14.84L12.66 16.89C12.61 17.06 12.45 17.18 12.27 17.18L3.34 17.18C3.16 17.18 3 17.06 2.96 16.89ZM17.34 16.89C17.3 17.06 17.14 17.18 16.96 17.18L13.38 17.18C13.39 17.15 13.4 17.11 13.41 17.08L13.97 14.84L17.85 14.84L17.34 16.89ZM17.34 12.01L17.85 14.06L13.97 14.06L13.41 11.82C13.4 11.78 13.39 11.75 13.38 11.71L16.96 11.71C17.14 11.71 17.3 11.84 17.34 12.01L17.34 12.01ZM2.96 12.01C3 11.84 3.16 11.71 3.34 11.71L12.27 11.71C12.45 11.71 12.61 11.84 12.66 12.01L13.17 14.06L9.37 14.06C9.37 13.84 9.19 13.67 8.98 13.67L6.64 13.67C6.42 13.67 6.25 13.84 6.25 14.06L2.45 14.06L2.96 12.01ZM2.18 18.26C2.22 18.09 2.38 17.96 2.56 17.96L11.49 17.96C11.67 17.96 11.83 18.09 11.87 18.26L12.39 20.31L8.59 20.31C8.59 20.09 8.41 19.92 8.2 19.92L5.85 19.92C5.64 19.92 5.46 20.09 5.46 20.31L1.67 20.31L2.18 18.26ZM10.15 23.43L2.56 23.43C2.38 23.43 2.22 23.31 2.18 23.14L1.67 21.09L12.39 21.09L11.87 23.14C11.83 23.31 11.67 23.43 11.49 23.43L10.15 23.43ZM16.56 23.14C16.52 23.31 16.36 23.43 16.18 23.43L12.59 23.43C12.61 23.4 12.62 23.36 12.63 23.33L13.19 21.09L17.07 21.09L16.56 23.14Z" fill="#302929" fill-opacity="1.000000" fill-rule="nonzero"/>
		<path id="Vector" d="M8.2 2.73L8.2 6.25L4.29 6.25C4.08 6.25 3.9 6.42 3.9 6.64L3.9 10.15L4.68 10.15L4.68 7.03L19.53 7.03L19.53 23.43L17.96 23.43L17.96 24.21L23.82 24.21C24.04 24.22 24.21 24.04 24.21 23.83C24.21 23.83 24.21 23.83 24.21 23.82L24.21 6.64C24.21 6.42 24.04 6.25 23.82 6.25L21.48 6.25L21.48 3.51C21.48 3.49 21.48 3.46 21.47 3.42C21.46 3.38 21.45 3.36 21.44 3.34L20.66 1.78C20.59 1.64 20.46 1.56 20.31 1.56L16.25 1.56L15.97 0.99C15.91 0.86 15.77 0.78 15.62 0.78L9.37 0.78C9.22 0.78 9.09 0.86 9.02 0.99L8.24 2.55C8.23 2.58 8.22 2.61 8.21 2.64C8.2 2.68 8.2 2.71 8.2 2.73ZM19.92 6.25L19.92 3.9L20.7 3.9L20.7 6.25L19.92 6.25ZM16.79 3.9L19.14 3.9L19.14 6.25L16.79 6.25L16.79 3.9ZM16.75 2.55L16.64 2.34L20.07 2.34L20.46 3.12L16.79 3.12L16.79 2.73C16.79 2.7 16.79 2.67 16.78 2.63C16.77 2.6 16.76 2.58 16.75 2.55ZM9.61 1.56L15.38 1.56L15.62 2.04L15.62 2.34L9.22 2.34L9.61 1.56ZM14.45 3.12L14.45 6.25L10.54 6.25L10.54 3.12L14.45 3.12ZM8.98 6.25L8.98 3.12L9.76 3.12L9.76 6.25L8.98 6.25ZM15.23 6.25L15.23 3.12L16.01 3.12L16.01 6.25L15.23 6.25ZM21.09 7.03L23.43 7.03L23.43 22.46L22.26 20.59L22.26 12.08L21.48 12.08L21.48 20.59L20.31 22.46L20.31 7.03L21.09 7.03ZM20.62 23.43L21.87 21.44L23.12 23.43L20.62 23.43Z" fill="#302929" fill-opacity="1.000000" fill-rule="nonzero"/>
		<path id="Vector" d="M21.48 8.98L22.26 8.98L22.26 11.32L21.48 11.32L21.48 8.98Z" fill="#302929" fill-opacity="1.000000" fill-rule="nonzero"/>
	</g>
</svg>
