<svg width="26.000000" height="26.000000" viewBox="0 0 26 26" fill="none" xmlns="http://www.w3.org/2000/svg" xmlns:xlink="http://www.w3.org/1999/xlink">
	<desc>
			Created with Pixso.
	</desc>
	<defs>
		<clipPath id="clip606_1024">
			<rect id="free-icon-food-delivery-10202108" width="26.000000" height="26.000000" fill="white" fill-opacity="0"/>
		</clipPath>
	</defs>
	<rect id="free-icon-food-delivery-10202108" width="26.000000" height="26.000000" fill="#FFFFFF" fill-opacity="0"/>
	<g clip-path="url(#clip606_1024)">
		<path id="Vector" d="M14.89 20.12C14.89 20.12 14.6 21.08 13.63 20.84C12.65 20.6 10.34 20.05 10.34 20.05" stroke="#302929" stroke-opacity="1.000000" stroke-width="1.000000" stroke-linejoin="round" stroke-linecap="round"/>
		<path id="Vector" d="M14.89 20.12C14.89 20.12 14.6 21.08 13.63 20.84C12.65 20.6 10.34 20.05 10.34 20.05" stroke="#302929" stroke-opacity="1.000000" stroke-width="1.000000" stroke-linejoin="round" stroke-linecap="round"/>
		<path id="Vector" d="M17.74 2.45C17.74 1.3 16.81 0.38 15.67 0.38C14.52 0.38 13.6 1.3 13.6 2.45L13.6 5.36L14.48 6C14.68 6.14 14.95 6.14 15.15 6L16.56 4.98C16.66 4.91 16.77 4.87 16.88 4.85C16.98 4.28 17.29 3.78 17.74 3.43L17.74 2.45Z" stroke="#302929" stroke-opacity="1.000000" stroke-width="1.000000" stroke-linejoin="round"/>
		<path id="Vector" d="M18.8 6C19 6.14 19.27 6.14 19.47 6L20.88 4.98C21.03 4.87 21.21 4.83 21.39 4.85C21.2 3.78 20.26 2.96 19.13 2.96C18 2.96 17.07 3.78 16.88 4.85C17.05 4.83 17.24 4.87 17.39 4.98L18.8 6Z" stroke="#302929" stroke-opacity="1.000000" stroke-width="1.000000" stroke-linejoin="round"/>
		<path id="Vector" d="M15.29 3.18L16.05 3.18" stroke="#302929" stroke-opacity="1.000000" stroke-width="1.000000" stroke-linejoin="round" stroke-linecap="round"/>
		<path id="Vector" d="M21.7 4.98L23.12 6C23.32 6.14 23.59 6.14 23.79 6L25.08 5.06C25.19 4.49 24.93 3.89 24.42 3.57C24.28 3.48 24.2 3.31 24.22 3.14C24.3 2.55 24 1.94 23.44 1.65C22.88 1.36 22.22 1.47 21.78 1.88C21.65 1.99 21.47 2.03 21.32 1.96C20.62 1.67 19.81 1.95 19.45 2.64C19.39 2.75 19.35 2.86 19.33 2.97C20.37 3.05 21.21 3.84 21.39 4.85C21.5 4.87 21.61 4.91 21.7 4.98Z" stroke="#302929" stroke-opacity="1.000000" stroke-width="1.000000" stroke-linejoin="round"/>
		<path id="Vector" d="M7.01 17.07C6.43 17.15 6 17.29 5.37 17.58C4.71 17.87 4.08 18.23 3.49 18.64C3.1 18.92 2.68 19.12 2.22 19.25L0.68 19.67C0.5 19.72 0.38 19.88 0.38 20.06L0.38 25.2C0.38 25.49 0.66 25.69 0.93 25.59L6.3 23.55C7.48 23.16 8.71 23.13 9.7 23.52L11.8 24.36C12.26 24.52 13.31 24.76 14.41 24.2C14.41 24.2 14.41 24.2 14.41 24.2C14.67 24.08 21.43 21.1 21.74 20.96C21.96 20.85 23.08 20.18 22.58 19.04C22 17.83 20.66 18.4 20.55 18.44L14.89 20.12C14.89 20.12 15.28 18.98 14.1 18.51C10.85 17.22 10.46 16.99 9.64 16.98L9.64 16.98C9.33 16.98 9.05 16.98 8.79 16.99" stroke="#302929" stroke-opacity="1.000000" stroke-width="1.000000" stroke-linejoin="round" stroke-linecap="round"/>
		<path id="Vector" d="M25.61 10.12L25.61 5.07C25.61 4.91 25.43 4.81 25.3 4.91L23.79 6C23.59 6.14 23.32 6.14 23.12 6L21.7 4.98C21.46 4.8 21.13 4.8 20.88 4.98L19.47 6C19.27 6.14 19 6.14 18.8 6L17.39 4.98C17.14 4.8 16.81 4.8 16.56 4.98L15.15 6C14.95 6.14 14.68 6.14 14.48 6L12.97 4.91C12.84 4.81 12.65 4.91 12.65 5.07L12.65 15.71C12.65 16.19 13.05 16.59 13.53 16.59L24.74 16.59C25.22 16.59 25.61 16.19 25.61 15.71L25.61 11.9" stroke="#302929" stroke-opacity="1.000000" stroke-width="1.000000" stroke-linejoin="round" stroke-linecap="round"/>
		<path id="Vector" d="M4.3 3.86L9.48 3.86" stroke="#302929" stroke-opacity="1.000000" stroke-width="1.000000" stroke-linejoin="round" stroke-linecap="round"/>
		<path id="Vector" d="M5.8 6.28L9.48 6.28" stroke="#302929" stroke-opacity="1.000000" stroke-width="1.000000" stroke-linejoin="round" stroke-linecap="round"/>
		<path id="Vector" d="M6.61 8.7L9.48 8.7" stroke="#302929" stroke-opacity="1.000000" stroke-width="1.000000" stroke-linejoin="round" stroke-linecap="round"/>
		<path id="Vector" d="M7.25 11.13L9.48 11.13" stroke="#302929" stroke-opacity="1.000000" stroke-width="1.000000" stroke-linejoin="round" stroke-linecap="round"/>
	</g>
</svg>
