<svg width="25.000000" height="25.000000" viewBox="0 0 25 25" fill="none" xmlns="http://www.w3.org/2000/svg" xmlns:xlink="http://www.w3.org/1999/xlink">
	<desc>
			Created with Pixso.
	</desc>
	<defs/>
	<mask id="mask679_145" mask-type="alpha" maskUnits="userSpaceOnUse" x="0.000000" y="0.000000" width="25.000000" height="25.000000">
		<path id="path5853" d="M0 0L25 0L25 25L0 25L0 0Z" fill="#000000" fill-opacity="1.000000" fill-rule="nonzero"/>
	</mask>
	<g mask="url(#mask679_145)">
		<path id="path5859" d="M11.78 10.89C11.91 11.56 12.08 12.22 12.28 12.78L16.25 12.78C16.18 8.82 14.7 6.92 13.44 6.31M11.87 6.81C11.64 7.37 11.55 8.1 11.57 8.89" stroke="#302929" stroke-opacity="1.000000" stroke-width="1.000000" stroke-linejoin="round"/>
		<path id="path5863" d="M23.67 14.28C24.2 14.28 24.63 13.85 24.63 13.32L24.63 9.04C24.63 8.51 24.2 8.07 23.67 8.07L19.43 8.07C18.9 8.07 18.47 8.51 18.47 9.04L18.47 14.28L23.67 14.28Z" stroke="#302929" stroke-opacity="1.000000" stroke-width="1.000000" stroke-linejoin="round"/>
		<path id="path5865" d="M24.63 11.66L24.63 10.15L18.47 10.15L18.47 11.66L24.63 11.66Z" stroke="#302929" stroke-opacity="1.000000" stroke-width="1.000000" stroke-linejoin="round"/>
		<path id="path5869" d="M9.12 3.85L12.1 3.85C12.33 3.87 12.5 3.94 12.5 4.28L12.5 6.72C13.84 6.41 14.6 5.23 14.6 3.85C14.6 2.3 13.38 1.04 11.86 1.04C10.35 1.04 9.12 2.3 9.12 3.85Z" stroke="#302929" stroke-opacity="1.000000" stroke-width="1.000000" stroke-linejoin="round"/>
		<path id="path5873" d="M9.85 3.85C9.75 4.09 9.7 4.36 9.7 4.64C9.7 5.83 10.67 6.81 11.87 6.81C12.09 6.81 12.3 6.78 12.5 6.72" stroke="#302929" stroke-opacity="1.000000" stroke-width="1.000000" stroke-linejoin="round" stroke-linecap="round"/>
		<path id="path5877" d="M10.43 9.86L9.23 9.96L8.02 10.06C7.19 10.12 7.21 11.29 7.91 11.29L11.17 11.29L13 10.1C14.45 9.16 13.08 7.58 12 8.51L10.43 9.86Z" stroke="#302929" stroke-opacity="1.000000" stroke-width="1.000000" stroke-linejoin="round"/>
		<path id="path5881" d="M4.91 11.29L4.91 9.38C4.91 9.01 5.1 9.09 5.43 9.2L8.02 10.06C7.19 10.12 7.21 11.29 7.91 11.29L4.91 11.29Z" stroke="#302929" stroke-opacity="1.000000" stroke-width="1.000000" stroke-linejoin="round"/>
		<path id="path5885" d="M9.23 11.29L9.23 9.96" stroke="#302929" stroke-opacity="1.000000" stroke-width="1.000000" stroke-linejoin="round" stroke-linecap="round"/>
		<path id="path5889" d="M17.21 16.25L20.86 16.25C21.19 16.25 21.46 15.98 21.46 15.65L21.46 14.28L15.96 14.28M12.31 16.25L15.57 16.25" stroke="#302929" stroke-opacity="1.000000" stroke-width="1.000000" stroke-linejoin="round"/>
		<path id="path5893" d="M1.22 20.69L5.96 21.78C5.66 23.09 4.35 23.91 3.04 23.61C1.73 23.31 0.91 22 1.22 20.69Z" stroke="#302929" stroke-opacity="1.000000" stroke-width="1.000000" stroke-linejoin="round"/>
		<path id="path5897" d="M5.02 14.07L5.83 11.29L7.66 11.29C6.09 15.65 7 18.37 8.28 21.27L6.9 21.27M3.93 17.88L4.55 15.74" stroke="#302929" stroke-opacity="1.000000" stroke-width="1.000000" stroke-linejoin="round"/>
		<path id="path5901" d="M0.36 20.49L6.71 21.95C6.78 21.96 6.82 21.99 6.83 21.93C6.88 21.71 6.9 21.49 6.9 21.27L3.91 17.93C2.28 17.77 0.74 18.85 0.36 20.49Z" stroke="#302929" stroke-opacity="1.000000" stroke-width="1.000000" stroke-linejoin="round"/>
		<path id="path5905" d="M14.32 21.27L8.28 21.27M20.86 16.25C21.36 17.13 21.76 18.17 21.41 20.18" stroke="#302929" stroke-opacity="1.000000" stroke-width="1.000000" stroke-linejoin="round"/>
		<path id="path5909" d="M14.32 21.27L21.36 21.27C21.49 21.27 21.58 21.29 21.57 21.16C21.51 19.16 19.91 17.59 17.95 17.59C15.94 17.59 14.32 19.23 14.32 21.27Z" stroke="#302929" stroke-opacity="1.000000" stroke-width="1.000000" stroke-linejoin="round"/>
		<path id="path5913" d="M17.99 23.95C19.47 23.95 20.67 22.76 20.75 21.27L15.23 21.27C15.31 22.76 16.52 23.95 17.99 23.95Z" stroke="#302929" stroke-opacity="1.000000" stroke-width="1.000000" stroke-linejoin="round"/>
		<path id="path5917" d="M8.96 19.61L7.6 19.61" stroke="#302929" stroke-opacity="1.000000" stroke-width="1.000000" stroke-linejoin="round" stroke-linecap="round"/>
		<path id="path5921" d="M10.24 18L10.24 15.74C10.24 13.58 11.36 12.88 12.28 12.78L16.25 12.78C16.33 14.28 15.75 14.95 14.29 14.95L12.97 14.95C12.31 14.95 12.31 15.39 12.31 16.25L12.31 18" stroke="#302929" stroke-opacity="1.000000" stroke-width="1.000000" stroke-linejoin="round" stroke-linecap="round"/>
		<path id="path5925" d="M10.24 18L12.31 18L12.31 19.31C12.31 19.59 12.16 19.61 11.94 19.61L8.96 19.61C8.9 18.3 9.69 18 10.24 18Z" stroke="#302929" stroke-opacity="1.000000" stroke-width="1.000000" stroke-linejoin="round"/>
	</g>
</svg>
