<svg width="35.000000" height="35.000000" viewBox="0 0 35 35" fill="none" xmlns="http://www.w3.org/2000/svg" xmlns:xlink="http://www.w3.org/1999/xlink">
	<desc>
			Created with Pixso.
	</desc>
	<defs>
		<clipPath id="clip697_1425">
			<rect id="arcticons:maps" width="35.000000" height="35.000000" fill="white" fill-opacity="0"/>
		</clipPath>
	</defs>
	<rect id="arcticons:maps" width="35.000000" height="35.000000" fill="#FFFFFF" fill-opacity="0"/>
	<g clip-path="url(#clip697_1425)">
		<path id="Vector" d="M17.15 4.01L5.46 4.01C5.08 4.01 4.71 4.16 4.43 4.43C4.16 4.71 4 5.08 4 5.46L4 29.53C4 29.91 4.16 30.28 4.43 30.56C4.71 30.83 5.08 30.98 5.46 30.98L29.53 30.98C29.91 30.98 30.28 30.83 30.56 30.56C30.83 30.28 30.98 29.91 30.98 29.53L30.98 5.46C30.98 5.08 30.83 4.71 30.56 4.43C30.28 4.16 29.91 4.01 29.53 4.01L25.92 4.01" stroke="#8EC038" stroke-opacity="1.000000" stroke-width="1.000000" stroke-linejoin="round" stroke-linecap="round"/>
		<path id="Vector" d="M16.61 4.49C15.3 5.8 14.57 7.57 14.57 9.42C14.57 14.87 19.9 21.44 21.28 23.05C21.32 23.1 21.37 23.14 21.42 23.16C21.48 23.19 21.54 23.2 21.6 23.2C21.66 23.2 21.72 23.19 21.78 23.16C21.83 23.13 21.88 23.1 21.92 23.05C23.28 21.43 28.5 14.87 28.5 9.42C28.5 8.5 28.32 7.6 27.97 6.75C27.62 5.91 27.11 5.14 26.46 4.49C25.81 3.84 25.04 3.33 24.2 2.98C23.35 2.63 22.45 2.45 21.53 2.45C19.68 2.45 17.91 3.18 16.61 4.49ZM20.09 11.58C19.66 11.3 19.33 10.89 19.13 10.41C18.93 9.94 18.88 9.41 18.98 8.91C19.08 8.4 19.33 7.94 19.69 7.58C20.06 7.21 20.52 6.96 21.02 6.86C21.53 6.76 22.05 6.82 22.53 7.01C23 7.21 23.41 7.54 23.7 7.97C23.98 8.4 24.14 8.9 24.14 9.42C24.14 9.76 24.07 10.1 23.94 10.41C23.81 10.73 23.61 11.02 23.37 11.26C23.13 11.5 22.84 11.69 22.53 11.82C22.21 11.95 21.87 12.02 21.53 12.02C21.02 12.02 20.51 11.87 20.09 11.58ZM25.36 18.27L30.98 17.4M4 21.56L18.46 19.33M13.05 20.16L10.33 4.01" stroke="#8EC038" stroke-opacity="1.000000" stroke-width="1.000000" stroke-linejoin="round"/>
	</g>
</svg>
