<svg width="19.000000" height="15.000000" viewBox="0 0 19 15" fill="none" xmlns="http://www.w3.org/2000/svg" xmlns:xlink="http://www.w3.org/1999/xlink">
	<desc>
			Created with Pixso.
	</desc>
	<defs/>
	<path id="Vector" d="M1.9 1.66L4.75 1.66L6.09 0.48C6.44 0.17 6.93 0 7.43 0L11.56 0C12.06 0 12.55 0.17 12.9 0.48L14.25 1.66L17.09 1.66C17.6 1.66 18.08 1.84 18.44 2.15C18.8 2.46 19 2.89 19 3.33L19 13.33C19 13.77 18.8 14.19 18.44 14.51C18.08 14.82 17.6 15 17.09 15L1.9 15C1.39 15 0.91 14.82 0.55 14.51C0.19 14.19 0 13.77 0 13.33L0 3.33C0 2.89 0.19 2.46 0.55 2.15C0.91 1.84 1.39 1.66 1.9 1.66ZM9.5 4.16C8.24 4.16 7.03 4.6 6.14 5.38C5.25 6.16 4.75 7.22 4.75 8.33C4.75 9.43 5.25 10.49 6.14 11.27C7.03 12.06 8.24 12.5 9.5 12.5C10.75 12.5 11.96 12.06 12.85 11.27C13.75 10.49 14.25 9.43 14.25 8.33C14.25 7.22 13.75 6.16 12.85 5.38C11.96 4.6 10.75 4.16 9.5 4.16ZM9.5 5.83C10.25 5.83 10.98 6.09 11.51 6.56C12.04 7.03 12.34 7.67 12.34 8.33C12.34 8.99 12.04 9.63 11.51 10.1C10.98 10.56 10.25 10.83 9.5 10.83C8.74 10.83 8.01 10.56 7.48 10.1C6.95 9.63 6.65 8.99 6.65 8.33C6.65 7.67 6.95 7.03 7.48 6.56C8.01 6.09 8.74 5.83 9.5 5.83Z" fill="#637381" fill-opacity="1.000000" fill-rule="evenodd"/>
</svg>
