<svg width="32.000000" height="32.000000" viewBox="0 0 32 32" fill="none" xmlns="http://www.w3.org/2000/svg" xmlns:xlink="http://www.w3.org/1999/xlink">
	<desc>
			Created with Pixso.
	</desc>
	<defs>
		<clipPath id="clip797_1207">
			<rect id="carbon:search" width="32.000000" height="32.000000" fill="white" fill-opacity="0"/>
		</clipPath>
	</defs>
	<rect id="carbon:search" width="32.000000" height="32.000000" fill="#FFFFFF" fill-opacity="0"/>
	<g clip-path="url(#clip797_1207)">
		<path id="Vector" d="M29 27.58L21.44 20.03C23.26 17.85 24.16 15.06 23.97 12.23C23.78 9.4 22.5 6.75 20.41 4.84C18.31 2.93 15.56 1.9 12.73 1.96C9.89 2.03 7.19 3.18 5.19 5.19C3.18 7.19 2.03 9.89 1.96 12.73C1.9 15.56 2.93 18.31 4.84 20.41C6.75 22.5 9.4 23.78 12.23 23.97C15.06 24.16 17.85 23.26 20.03 21.44L27.58 29L29 27.58ZM4 13C4 11.22 4.52 9.47 5.51 8C6.5 6.52 7.91 5.36 9.55 4.68C11.2 4 13 3.82 14.75 4.17C16.5 4.52 18.1 5.37 19.36 6.63C20.62 7.89 21.48 9.49 21.82 11.24C22.17 12.99 21.99 14.79 21.31 16.44C20.63 18.08 19.48 19.49 18 20.48C16.52 21.47 14.78 22 13 22C10.61 21.99 8.32 21.04 6.63 19.36C4.95 17.67 4 15.38 4 13Z" fill="#B8B8B8" fill-opacity="1.000000" fill-rule="nonzero"/>
	</g>
</svg>
