<svg width="26.000000" height="26.000000" viewBox="0 0 26 26" fill="none" xmlns="http://www.w3.org/2000/svg" xmlns:xlink="http://www.w3.org/1999/xlink">
	<desc>
			Created with Pixso.
	</desc>
	<defs>
		<clipPath id="clip606_954">
			<rect id="free-icon-settings-503822" width="26.000000" height="26.000000" fill="white" fill-opacity="0"/>
		</clipPath>
	</defs>
	<rect id="free-icon-settings-503822" width="26.000000" height="26.000000" fill="#FFFFFF" fill-opacity="0"/>
	<g clip-path="url(#clip606_954)">
		<path id="Vector" d="M25.22 15.85L22.83 13.98C22.86 13.69 22.88 13.35 22.88 13C22.88 12.64 22.86 12.3 22.83 12.01L25.22 10.14C25.66 9.79 25.78 9.17 25.5 8.65L23.01 4.35C22.74 3.86 22.13 3.63 21.58 3.83L18.76 4.97C18.22 4.58 17.65 4.25 17.07 3.98L16.64 0.99C16.57 0.42 16.07 0 15.49 0L10.5 0C9.92 0 9.43 0.42 9.36 0.98L8.93 3.98C8.36 4.24 7.8 4.56 7.24 4.97L4.41 3.83C3.87 3.62 3.25 3.84 2.98 4.34L0.5 8.65C0.2 9.14 0.32 9.79 0.78 10.15L3.17 12.01C3.13 12.38 3.11 12.7 3.11 13C3.11 13.29 3.13 13.61 3.16 13.98L0.77 15.85C0.33 16.2 0.21 16.82 0.49 17.34L2.98 21.64C3.25 22.13 3.85 22.36 4.41 22.16L7.23 21.02C7.77 21.41 8.34 21.74 8.93 22.01L9.35 25C9.43 25.57 9.92 26 10.5 26L15.49 26C16.07 26 16.57 25.57 16.63 25.01L17.06 22.01C17.63 21.75 18.19 21.43 18.75 21.02L21.58 22.16C22.12 22.37 22.74 22.15 23.01 21.65L25.51 17.33C25.78 16.82 25.66 16.2 25.22 15.85ZM24.56 16.8L21.98 21.15L18.88 19.91C18.7 19.84 18.5 19.86 18.35 19.97C17.68 20.48 17.03 20.86 16.37 21.13C16.19 21.2 16.06 21.36 16.03 21.55L15.49 24.91L10.43 24.85L9.96 21.55C9.93 21.36 9.8 21.2 9.63 21.13C8.93 20.84 8.27 20.46 7.65 19.98C7.55 19.9 7.43 19.87 7.31 19.87C7.25 19.87 7.18 19.88 7.11 19.91L3.92 21.11L1.44 16.81C1.41 16.77 1.42 16.72 1.44 16.7L4.07 14.64C4.22 14.53 4.3 14.34 4.28 14.15C4.22 13.69 4.19 13.33 4.19 13C4.19 12.66 4.22 12.3 4.28 11.84C4.3 11.65 4.22 11.46 4.07 11.35L1.43 9.19L4.01 4.84L7.11 6.09C7.29 6.16 7.49 6.13 7.64 6.02C8.31 5.51 8.96 5.14 9.63 4.86C9.8 4.79 9.93 4.63 9.96 4.44L10.5 1.08L15.56 1.14L16.03 4.44C16.06 4.63 16.19 4.79 16.37 4.86C17.06 5.15 17.72 5.53 18.35 6.01C18.5 6.13 18.7 6.16 18.88 6.09L22.07 4.88L24.55 9.18C24.58 9.22 24.57 9.27 24.55 9.29L21.92 11.35C21.77 11.46 21.69 11.65 21.71 11.84C21.75 12.17 21.8 12.57 21.8 13C21.8 13.43 21.75 13.82 21.71 14.15C21.69 14.34 21.77 14.53 21.92 14.64L24.54 16.7C24.57 16.72 24.58 16.77 24.56 16.8Z" fill="#302929" fill-opacity="1.000000" fill-rule="nonzero"/>
		<path id="Vector" d="M13 7.58C10.01 7.58 7.58 10.01 7.58 12.99C7.58 15.98 10.01 18.41 13 18.41C15.98 18.41 18.41 15.98 18.41 12.99C18.41 10.01 15.98 7.58 13 7.58ZM13 17.33C10.61 17.33 8.66 15.38 8.66 12.99C8.66 10.61 10.61 8.66 13 8.66C15.39 8.66 17.33 10.61 17.33 12.99C17.33 15.38 15.39 17.33 13 17.33Z" fill="#302929" fill-opacity="1.000000" fill-rule="nonzero"/>
	</g>
</svg>
