<svg width="26.000000" height="26.000000" viewBox="0 0 26 26" fill="none" xmlns="http://www.w3.org/2000/svg" xmlns:xlink="http://www.w3.org/1999/xlink">
	<desc>
			Created with Pixso.
	</desc>
	<defs>
		<clipPath id="clip606_1041">
			<rect id="free-icon-sign-out-3945535 1" width="26.000000" height="26.000000" fill="white" fill-opacity="0"/>
		</clipPath>
	</defs>
	<rect id="free-icon-sign-out-3945535 1" width="26.000000" height="26.000000" fill="#FFFFFF" fill-opacity="0"/>
	<g clip-path="url(#clip606_1041)">
		<path id="Vector" d="M26 3.16L26 22.83C26 24.39 24.51 25.66 22.7 25.66L15.73 25.66C15.51 25.66 15.31 25.57 15.16 25.42C15 25.27 14.92 25.06 14.92 24.85C14.92 24.63 15 24.42 15.16 24.27C15.31 24.12 15.51 24.03 15.73 24.03L22.7 24.03C23.6 24.03 24.37 23.48 24.37 22.83L24.37 3.16C24.37 2.51 23.6 1.96 22.7 1.96L15.73 1.96C15.51 1.96 15.31 1.87 15.16 1.72C15 1.57 14.92 1.36 14.92 1.14C14.92 0.93 15 0.72 15.16 0.57C15.31 0.42 15.51 0.33 15.73 0.33L22.7 0.33C24.51 0.33 26 1.6 26 3.16ZM2.72 13.81L18.16 13.81C18.38 13.81 18.58 13.72 18.74 13.57C18.89 13.42 18.98 13.21 18.98 13C18.98 12.78 18.89 12.57 18.74 12.42C18.58 12.27 18.38 12.18 18.16 12.18L2.72 12.18L7.77 6.94C7.92 6.78 8 6.57 7.99 6.36C7.99 6.14 7.9 5.94 7.75 5.79C7.59 5.64 7.38 5.56 7.16 5.56C6.95 5.57 6.75 5.65 6.6 5.81L0.22 12.43C0.08 12.58 0 12.78 0 12.99C0 13.21 0.08 13.41 0.22 13.56L6.6 20.18C6.67 20.26 6.76 20.32 6.86 20.36C6.95 20.41 7.06 20.43 7.17 20.43C7.27 20.44 7.38 20.42 7.48 20.38C7.58 20.34 7.67 20.28 7.75 20.21C7.83 20.13 7.89 20.04 7.93 19.95C7.98 19.85 8 19.74 8 19.63C8 19.53 7.98 19.42 7.94 19.32C7.9 19.22 7.84 19.13 7.77 19.05L2.72 13.81Z" fill="#302929" fill-opacity="1.000000" fill-rule="nonzero"/>
	</g>
</svg>
