<svg width="28.500000" height="28.500732" viewBox="0 0 28.5 28.5007" fill="none" xmlns="http://www.w3.org/2000/svg" xmlns:xlink="http://www.w3.org/1999/xlink">
	<desc>
			Created with Pixso.
	</desc>
	<defs/>
	<path id="Vector" d="M28.28 27.21C28.42 27.36 28.5 27.55 28.5 27.75C28.5 27.94 28.42 28.14 28.28 28.28C28.14 28.42 27.94 28.5 27.75 28.5C27.55 28.5 27.36 28.42 27.22 28.28L14.25 15.31L1.28 28.28C1.14 28.42 0.94 28.5 0.75 28.5C0.55 28.5 0.36 28.42 0.22 28.28C0.07 28.14 0 27.94 0 27.75C0 27.55 0.07 27.36 0.22 27.21L13.18 14.25L0.22 1.28C0.07 1.14 0 0.94 0 0.75C0 0.55 0.07 0.36 0.22 0.21C0.36 0.07 0.55 0 0.75 0C0.94 0 1.14 0.07 1.28 0.21L14.25 13.18L27.22 0.21C27.28 0.15 27.37 0.09 27.46 0.05C27.55 0.01 27.65 0 27.75 0C27.84 0 27.94 0.01 28.03 0.05C28.12 0.09 28.21 0.15 28.28 0.21C28.35 0.28 28.4 0.37 28.44 0.46C28.48 0.55 28.5 0.65 28.5 0.75C28.5 0.84 28.48 0.94 28.44 1.03C28.4 1.12 28.35 1.21 28.28 1.28L15.31 14.25L28.28 27.21Z" fill="#000000" fill-opacity="1.000000" fill-rule="nonzero"/>
</svg>
