<svg width="48.000000" height="48.000000" viewBox="0 0 48 48" fill="none" xmlns="http://www.w3.org/2000/svg" xmlns:xlink="http://www.w3.org/1999/xlink">
	<desc>
			Created with Pixso.
	</desc>
	<defs>
		<clipPath id="clip116_97">
			<rect id="ph:arrow-circle-left-thin" width="48.000000" height="48.000000" transform="translate(48.000000 48.000000) rotate(-179.999985)" fill="white" fill-opacity="0"/>
		</clipPath>
	</defs>
	<rect id="ph:arrow-circle-left-thin" width="48.000000" height="48.000000" transform="translate(48.000000 48.000000) rotate(-179.999985)" fill="#FFFFFF" fill-opacity="0"/>
	<g clip-path="url(#clip116_97)">
		<path id="Vector" d="M24 42.75C27.7 42.75 31.33 41.65 34.41 39.59C37.5 37.52 39.9 34.6 41.32 31.17C42.74 27.74 43.11 23.97 42.38 20.34C41.66 16.7 39.88 13.36 37.25 10.74C34.63 8.11 31.29 6.33 27.65 5.61C24.02 4.88 20.25 5.25 16.82 6.67C13.39 8.09 10.47 10.49 8.41 13.58C6.34 16.66 5.25 20.29 5.25 24C5.25 28.96 7.23 33.73 10.75 37.24C14.26 40.76 19.03 42.74 24 42.75ZM24 6.75C27.41 6.75 30.74 7.76 33.58 9.65C36.41 11.55 38.63 14.24 39.93 17.39C41.24 20.55 41.58 24.01 40.91 27.36C40.25 30.71 38.61 33.78 36.19 36.19C33.78 38.61 30.71 40.25 27.36 40.91C24.01 41.58 20.55 41.24 17.39 39.93C14.24 38.63 11.55 36.42 9.65 33.58C7.76 30.74 6.75 27.41 6.75 24C6.75 19.42 8.57 15.04 11.8 11.8C15.04 8.57 19.42 6.75 24 6.75ZM15.75 24C15.75 23.8 15.82 23.61 15.96 23.46C16.11 23.32 16.3 23.25 16.5 23.25L29.68 23.25L24.59 18.16C24.46 18.02 24.39 17.83 24.39 17.63C24.39 17.43 24.46 17.24 24.59 17.1C24.67 17.03 24.75 16.97 24.85 16.94C24.94 16.9 25.04 16.88 25.14 16.89C25.24 16.89 25.33 16.9 25.42 16.94C25.51 16.97 25.59 17.03 25.66 17.1L32.02 23.47C32.09 23.54 32.15 23.62 32.18 23.71C32.22 23.8 32.24 23.9 32.24 24C32.24 24.09 32.22 24.19 32.18 24.28C32.15 24.37 32.09 24.45 32.02 24.52L25.66 30.89C25.52 31.04 25.33 31.12 25.13 31.12C24.93 31.12 24.74 31.04 24.59 30.89C24.45 30.75 24.37 30.56 24.37 30.36C24.37 30.16 24.45 29.97 24.59 29.83L29.68 24.75L16.5 24.75C16.3 24.75 16.11 24.67 15.96 24.53C15.82 24.38 15.75 24.19 15.75 24Z" fill="#FFFFFF" fill-opacity="1.000000" fill-rule="nonzero"/>
	</g>
</svg>
