<svg width="48.000000" height="48.000000" viewBox="0 0 48 48" fill="none" xmlns="http://www.w3.org/2000/svg" xmlns:xlink="http://www.w3.org/1999/xlink">
	<desc>
			Created with Pixso.
	</desc>
	<defs>
		<clipPath id="clip116_95">
			<rect id="ph:arrow-circle-left-thin" width="48.000000" height="48.000000" transform=" rotate(-0.000000)" fill="white" fill-opacity="0"/>
		</clipPath>
	</defs>
	<rect id="ph:arrow-circle-left-thin" width="48.000000" height="48.000000" transform=" rotate(-0.000000)" fill="#FFFFFF" fill-opacity="0"/>
	<g clip-path="url(#clip116_95)">
		<path id="Vector" d="M24 5.25C20.29 5.25 16.66 6.34 13.58 8.4C10.5 10.47 8.09 13.39 6.67 16.82C5.25 20.25 4.88 24.02 5.61 27.65C6.33 31.29 8.11 34.63 10.74 37.25C13.36 39.88 16.7 41.66 20.34 42.38C23.97 43.11 27.74 42.74 31.17 41.32C34.6 39.9 37.53 37.5 39.58 34.41C41.65 31.33 42.75 27.7 42.75 24C42.74 19.03 40.76 14.26 37.24 10.75C33.73 7.23 28.96 5.26 24 5.25ZM24 41.25C20.58 41.25 17.25 40.23 14.41 38.34C11.58 36.44 9.36 33.75 8.06 30.6C6.75 27.44 6.41 23.98 7.08 20.63C7.74 17.28 9.38 14.21 11.8 11.8C14.21 9.38 17.28 7.74 20.63 7.08C23.98 6.41 27.44 6.75 30.6 8.06C33.75 9.36 36.44 11.57 38.34 14.41C40.23 17.25 41.25 20.58 41.25 24C41.24 28.57 39.42 32.95 36.19 36.19C32.95 39.42 28.57 41.24 24 41.25ZM32.25 24C32.25 24.19 32.17 24.38 32.03 24.53C31.88 24.67 31.69 24.75 31.5 24.75L18.31 24.75L23.4 29.83C23.53 29.97 23.6 30.16 23.6 30.36C23.6 30.56 23.53 30.75 23.4 30.89C23.32 30.96 23.24 31.02 23.14 31.05C23.05 31.09 22.95 31.11 22.85 31.1C22.75 31.1 22.66 31.09 22.57 31.05C22.48 31.02 22.4 30.96 22.33 30.89L15.97 24.52C15.9 24.45 15.84 24.37 15.81 24.28C15.77 24.19 15.75 24.09 15.75 24C15.75 23.9 15.77 23.8 15.81 23.71C15.84 23.62 15.9 23.54 15.97 23.47L22.33 17.1C22.47 16.95 22.66 16.87 22.86 16.87C23.06 16.87 23.25 16.95 23.4 17.1C23.54 17.24 23.62 17.43 23.62 17.63C23.62 17.83 23.54 18.02 23.4 18.16L18.31 23.25L31.5 23.25C31.69 23.25 31.88 23.32 32.03 23.46C32.17 23.61 32.25 23.8 32.25 24Z" fill="#FFFFFF" fill-opacity="1.000000" fill-rule="nonzero"/>
	</g>
</svg>
