<svg width="24.000000" height="24.000000" viewBox="0 0 24 24" fill="none" xmlns="http://www.w3.org/2000/svg" xmlns:xlink="http://www.w3.org/1999/xlink">
	<desc>
			Created with Pixso.
	</desc>
	<defs>
		<clipPath id="clip116_837">
			<rect id="circum:menu-fries" width="24.000000" height="24.000000" transform="matrix(-1 0 0 1 24 0)" fill="white" fill-opacity="0"/>
		</clipPath>
	</defs>
	<rect id="circum:menu-fries" width="24.000000" height="24.000000" transform="matrix(-1 0 0 1 24 0)" fill="#FFFFFF" fill-opacity="0"/>
	<g clip-path="url(#clip116_837)">
		<path id="Vector" d="M3.56 19.93C3.42 19.93 3.3 19.98 3.2 20.08C3.11 20.17 3.06 20.3 3.06 20.43C3.06 20.56 3.11 20.69 3.2 20.79C3.3 20.88 3.42 20.93 3.56 20.93L20.43 20.93C20.56 20.93 20.69 20.88 20.79 20.79C20.88 20.69 20.93 20.57 20.93 20.43C20.93 20.3 20.88 20.17 20.79 20.08C20.69 19.99 20.56 19.93 20.43 19.93L3.56 19.93ZM3.56 11.5C3.42 11.5 3.3 11.55 3.2 11.64C3.11 11.74 3.06 11.86 3.06 12C3.06 12.13 3.11 12.25 3.2 12.35C3.3 12.44 3.42 12.5 3.56 12.5L13.56 12.5C13.69 12.5 13.82 12.44 13.91 12.35C14 12.26 14.06 12.13 14.06 12C14.06 11.86 14 11.74 13.91 11.64C13.82 11.55 13.69 11.5 13.56 11.5L3.56 11.5ZM3.56 3.06C3.42 3.06 3.3 3.11 3.2 3.2C3.11 3.3 3.06 3.42 3.06 3.56C3.06 3.69 3.11 3.82 3.2 3.91C3.3 4 3.42 4.06 3.56 4.06L20.43 4.06C20.56 4.06 20.69 4.01 20.79 3.91C20.88 3.82 20.93 3.69 20.93 3.56C20.93 3.43 20.88 3.3 20.79 3.2C20.69 3.11 20.56 3.06 20.43 3.06L3.56 3.06Z" fill="#000000" fill-opacity="1.000000" fill-rule="nonzero"/>
	</g>
</svg>
